SplineFontDB: 3.2
FontName: hathorock
FullName: hathorock
FamilyName: hathorock
Weight: Book
Copyright: 
Version: 1.0
ItalicAngle: 0
UnderlinePosition: 10
UnderlineWidth: 0
Ascent: 819
Descent: 205
InvalidEm: 0
sfntRevision: 0x00010000
LayerCount: 2
Layer: 0 1 "Arri+AOgA-re" 1
Layer: 1 1 "Avant" 0
XUID: [1021 715 1257344226 20420]
StyleMap: 0x0040
FSType: 0
OS2Version: 1
OS2_WeightWidthSlopeOnly: 0
OS2_UseTypoMetrics: 0
CreationTime: 1724160266
ModificationTime: 1724165571
PfmFamily: 17
TTFWeight: 400
TTFWidth: 5
LineGap: 0
VLineGap: 0
Panose: 2 11 5 3 0 0 0 0 0 0
OS2TypoAscent: 819
OS2TypoAOffset: 0
OS2TypoDescent: -205
OS2TypoDOffset: 0
OS2TypoLinegap: 92
OS2WinAscent: 819
OS2WinAOffset: 0
OS2WinDescent: 205
OS2WinDOffset: 0
HheadAscent: 819
HheadAOffset: 0
HheadDescent: -205
HheadDOffset: 0
OS2SubXSize: 435
OS2SubYSize: 717
OS2SubXOff: 0
OS2SubYOff: 143
OS2SupXSize: 435
OS2SupYSize: 717
OS2SupXOff: 0
OS2SupYOff: 492
OS2StrikeYSize: 50
OS2StrikeYPos: 264
OS2Vendor: 'PfEd'
OS2CodePages: 00000001.00000000
OS2UnicodeRanges: 00000000.00000000.00000000.00000000
Lookup: 258 0 0 "'kern' Cr+AOkA-nage horizontal dans Latin lookup 0" { "lookup" [150,15,0] } ['kern' ('DFLT' <'dflt' > 'latn' <'dflt' > ) ]
MarkAttachClasses: 1
DEI: 91125
ShortTable: maxp 16
  1
  0
  95
  77
  5
  0
  0
  2
  0
  10
  10
  0
  255
  0
  0
  0
EndShort
LangName: 1033 "" "" "Regular" "hathorock" "" "Version 1.0" "" "" "" "" "Generated by svg2ttf from Fontello project." "http://fontello.com"
Encoding: UnicodeFull
UnicodeInterp: none
NameList: AGL For New Fonts
DisplaySize: -48
AntiAlias: 1
FitToEm: 0
WidthSeparation: 150
WinInfo: 0 16 14
BeginPrivate: 0
EndPrivate
TeXData: 1 0 0 345088 172544 115029 576512 1048576 115029 783286 444596 497025 792723 393216 433062 380633 303038 157286 324010 404750 52429 2506097 1059062 262144
BeginChars: 1114113 95

StartChar: exclam
Encoding: 33 33 2
Width: 236
GlyphClass: 1
Flags: W
LayerCount: 2
Fore
SplineSet
74 644 m 1,0,-1
 74 161 l 1,1,-1
 162 161 l 1,2,-1
 162 644 l 1,3,-1
 74 644 l 1,0,-1
74 87 m 1,4,-1
 74 0 l 1,5,-1
 162 0 l 1,6,-1
 162 87 l 1,7,-1
 74 87 l 1,4,-1
EndSplineSet
EndChar

StartChar: quotedbl
Encoding: 34 34 3
Width: 359
GlyphClass: 1
Flags: W
LayerCount: 2
Fore
SplineSet
68 420 m 1,0,-1
 68 706 l 1,1,-1
 155 706 l 1,2,-1
 155 420 l 1,3,-1
 68 420 l 1,0,-1
202 420 m 1,4,-1
 202 706 l 1,5,-1
 289 706 l 1,6,-1
 289 420 l 1,7,-1
 202 420 l 1,4,-1
EndSplineSet
EndChar

StartChar: numbersign
Encoding: 35 35 4
Width: 634
GlyphClass: 1
Flags: W
LayerCount: 2
Fore
SplineSet
328 427 m 1,0,-1
 363 427 l 1,1,-1
 406 600 l 1,2,-1
 495 600 l 1,3,-1
 452 427 l 1,4,-1
 572 427 l 1,5,-1
 572 339 l 1,6,-1
 431 339 l 1,7,-1
 422 302 l 1,8,-1
 572 302 l 1,9,-1
 572 215 l 1,10,-1
 399 215 l 1,11,-1
 356 41 l 1,12,-1
 267 41 l 1,13,-1
 310 215 l 1,14,-1
 275 215 l 1,15,-1
 232 41 l 1,16,-1
 142 41 l 1,17,-1
 186 215 l 1,18,-1
 66 215 l 1,19,-1
 66 302 l 1,20,-1
 208 302 l 1,21,-1
 217 339 l 1,22,-1
 66 339 l 1,23,-1
 66 427 l 1,24,-1
 239 427 l 1,25,-1
 282 600 l 1,26,-1
 371 600 l 1,27,-1
 328 427 l 1,0,-1
342 339 m 1,28,-1
 306 339 l 1,29,-1
 297 302 l 1,30,-1
 332 302 l 1,31,-1
 342 339 l 1,28,-1
EndSplineSet
EndChar

StartChar: dollar
Encoding: 36 36 5
Width: 476
GlyphClass: 1
Flags: W
LayerCount: 2
Fore
SplineSet
201 626 m 1,0,-1
 201 676 l 1,1,-1
 278 676 l 1,2,-1
 278 626 l 1,3,4
 328 617 328 617 367 583 c 0,5,6
 408 546 408 546 421 475 c 1,7,-1
 331 446 l 1,8,9
 324 507 324 507 302 527 c 0,10,11
 291 536 291 536 278 543 c 1,12,-1
 278 368 l 1,13,14
 326 351 326 351 366 315 c 0,15,16
 418 269 418 269 418.5 204 c 128,-1,17
 419 139 419 139 366 92 c 0,18,19
 328 58 328 58 278 49 c 1,20,-1
 278 0 l 1,21,-1
 201 0 l 1,22,-1
 201 49 l 1,23,24
 151 58 151 58 111 92 c 0,25,26
 70 129 70 129 58 200 c 1,27,-1
 148 228 l 1,28,29
 155 167 155 167 177 147 c 0,30,31
 188 138 188 138 201 132 c 1,32,-1
 201 307 l 1,33,34
 153 324 153 324 112 360 c 0,35,36
 60 406 60 406 60 471.5 c 128,-1,37
 60 537 60 537 112 583 c 0,38,39
 151 617 151 617 201 626 c 1,0,-1
278 276 m 1,40,-1
 278 132 l 1,41,42
 290 137 290 137 301 146 c 0,43,44
 328 170 328 170 328 203.5 c 128,-1,45
 328 237 328 237 302 260 c 0,46,47
 292 268 292 268 278 276 c 1,40,-1
201 399 m 1,48,-1
 201 543 l 1,49,50
 189 538 189 538 177 527 c 0,51,52
 151 504 151 504 151 471 c 128,-1,53
 151 438 151 438 177 416 c 0,54,55
 187 406 187 406 201 399 c 1,48,-1
EndSplineSet
EndChar

StartChar: percent
Encoding: 37 37 6
Width: 581
GlyphClass: 1
Flags: W
LayerCount: 2
Fore
SplineSet
522 554 m 1,0,-1
 135 0 l 1,1,-1
 63 50 l 1,2,-1
 450 603 l 1,3,-1
 522 554 l 1,0,-1
176 535 m 256,4,5
 224 535 224 535 258 501 c 128,-1,6
 292 467 292 467 292 419 c 128,-1,7
 292 371 292 371 258 336.5 c 128,-1,8
 224 302 224 302 176 302 c 128,-1,9
 128 302 128 302 93.5 336.5 c 128,-1,10
 59 371 59 371 59 419 c 128,-1,11
 59 467 59 467 93.5 501 c 128,-1,12
 128 535 128 535 176 535 c 256,4,5
176 449 m 256,13,14
 164 449 164 449 155 440 c 128,-1,15
 146 431 146 431 146 418.5 c 128,-1,16
 146 406 146 406 155 397 c 128,-1,17
 164 388 164 388 176 388 c 128,-1,18
 188 388 188 388 197 397 c 128,-1,19
 206 406 206 406 206 418.5 c 128,-1,20
 206 431 206 431 197 440 c 128,-1,21
 188 449 188 449 176 449 c 256,13,14
409 301 m 256,22,23
 457 301 457 301 491.5 267 c 128,-1,24
 526 233 526 233 526 184.5 c 128,-1,25
 526 136 526 136 492 102.5 c 128,-1,26
 458 69 458 69 409.5 69 c 128,-1,27
 361 69 361 69 327 102.5 c 128,-1,28
 293 136 293 136 293 184.5 c 128,-1,29
 293 233 293 233 327 267 c 128,-1,30
 361 301 361 301 409 301 c 256,22,23
409 215 m 256,31,32
 397 215 397 215 388.5 206.5 c 128,-1,33
 380 198 380 198 380 185 c 128,-1,34
 380 172 380 172 388.5 163.5 c 128,-1,35
 397 155 397 155 409.5 155 c 128,-1,36
 422 155 422 155 430.5 163.5 c 128,-1,37
 439 172 439 172 439 185 c 128,-1,38
 439 198 439 198 430 206.5 c 128,-1,39
 421 215 421 215 409 215 c 256,31,32
EndSplineSet
EndChar

StartChar: ampersand
Encoding: 38 38 7
Width: 607
GlyphClass: 1
Flags: W
LayerCount: 2
Fore
SplineSet
499 329 m 1,0,1
 538 306 538 306 550 262 c 0,2,3
 554 247 554 247 554 232 c 0,4,5
 554 203 554 203 539 179 c 0,6,7
 516 139 516 139 465 124 c 1,8,9
 456 93 456 93 418 54 c 0,10,11
 357 -7 357 -7 269.5 -7 c 128,-1,12
 182 -7 182 -7 120 55 c 128,-1,13
 58 117 58 117 58 204 c 128,-1,14
 58 291 58 291 119 355 c 0,15,16
 155 390 155 390 185 394 c 1,17,18
 119 460 119 460 119.5 525 c 128,-1,19
 120 590 120 590 166 636.5 c 128,-1,20
 212 683 212 683 277.5 683 c 128,-1,21
 343 683 343 683 389 637 c 0,22,23
 416 611 416 611 433 556 c 1,24,-1
 354 525 l 1,25,26
 340 564 340 564 328 575 c 0,27,28
 308 595 308 595 278.5 595.5 c 128,-1,29
 249 596 249 596 228 575.5 c 128,-1,30
 207 555 207 555 207 525.5 c 128,-1,31
 207 496 207 496 229 473 c 128,-1,32
 251 450 251 450 269.5 442.5 c 128,-1,33
 288 435 288 435 344 434 c 1,34,-1
 344 350 l 1,35,-1
 293 350 l 1,36,37
 218 335 218 335 181 295 c 128,-1,38
 144 255 144 255 144 204 c 128,-1,39
 144 153 144 153 180.5 116.5 c 128,-1,40
 217 80 217 80 268 80 c 128,-1,41
 319 80 319 80 379 139 c 1,42,43
 367 149 367 149 337 180 c 0,44,45
 326 190 326 190 319.5 194.5 c 128,-1,46
 313 199 313 199 310 199 c 2,47,-1
 309 199 l 2,48,49
 305 199 305 199 303 195 c 0,50,51
 302 193 302 193 302 190 c 128,-1,52
 302 187 302 187 304 184 c 2,53,-1
 232 136 l 1,54,55
 223 148 223 148 219 166 c 0,56,57
 216 178 216 178 216 191 c 0,58,59
 216 215 216 215 228 238 c 0,60,61
 247 272 247 272 286 282 c 0,62,63
 299 286 299 286 312 286 c 0,64,65
 336 286 336 286 358 273 c 0,66,67
 376 262 376 262 400 233.5 c 128,-1,68
 424 205 424 205 444 202 c 2,69,-1
 450 202 l 2,70,71
 466 202 466 202 473 216 c 0,72,73
 475 220 475 220 475 224 c 0,74,75
 475 237 475 237 456 254 c 1,76,-1
 499 329 l 1,0,1
EndSplineSet
EndChar

StartChar: quotesingle
Encoding: 39 39 8
Width: 294
GlyphClass: 1
Flags: W
LayerCount: 2
Fore
SplineSet
239 707 m 1,0,-1
 142 504 l 1,1,-1
 59 504 l 1,2,-1
 113 707 l 1,3,-1
 239 707 l 1,0,-1
EndSplineSet
EndChar

StartChar: parenleft
Encoding: 40 40 9
Width: 368
GlyphClass: 1
Flags: W
LayerCount: 2
Fore
SplineSet
312 644 m 1,0,1
 250 614 250 614 212 566 c 0,2,3
 146 484 146 484 146 337 c 128,-1,4
 146 190 146 190 212 109 c 0,5,6
 250 61 250 61 312 31 c 1,7,-1
 312 -56 l 1,8,9
 204 -19 204 -19 149 51 c 0,10,11
 63 157 63 157 63 337.5 c 128,-1,12
 63 518 63 518 149 625 c 0,13,14
 204 695 204 695 312 732 c 1,15,-1
 312 644 l 1,0,1
EndSplineSet
EndChar

StartChar: parenright
Encoding: 41 41 10
Width: 365
GlyphClass: 1
Flags: W
LayerCount: 2
Fore
SplineSet
56 729 m 1,0,1
 162 692 162 692 219 622 c 0,2,3
 304 516 304 516 304 335.5 c 128,-1,4
 304 155 304 155 219 48 c 0,5,6
 163 -22 163 -22 56 -59 c 1,7,-1
 56 28 l 1,8,9
 117 58 117 58 157 106 c 0,10,11
 222 187 222 187 221.5 334.5 c 128,-1,12
 221 482 221 482 157 564 c 0,13,14
 118 612 118 612 56 641 c 1,15,-1
 56 729 l 1,0,1
EndSplineSet
EndChar

StartChar: asterisk
Encoding: 42 42 11
Width: 432
GlyphClass: 1
Flags: W
LayerCount: 2
Fore
SplineSet
261 492 m 1,0,-1
 321 539 l 1,1,-1
 371 467 l 1,2,-1
 294 408 l 1,3,-1
 371 348 l 1,4,-1
 321 276 l 1,5,-1
 261 324 l 1,6,-1
 261 252 l 1,7,-1
 174 252 l 1,8,-1
 174 324 l 1,9,-1
 112 276 l 1,10,-1
 62 348 l 1,11,-1
 140 408 l 1,12,-1
 62 467 l 1,13,-1
 112 539 l 1,14,-1
 174 492 l 1,15,-1
 174 563 l 1,16,-1
 261 563 l 1,17,-1
 261 492 l 1,0,-1
EndSplineSet
EndChar

StartChar: plus
Encoding: 43 43 12
Width: 490
GlyphClass: 1
Flags: W
LayerCount: 2
Fore
SplineSet
202 282 m 1,0,-1
 64 282 l 1,1,-1
 64 369 l 1,2,-1
 202 369 l 1,3,-1
 202 507 l 1,4,-1
 290 507 l 1,5,-1
 290 369 l 1,6,-1
 429 369 l 1,7,-1
 429 282 l 1,8,-1
 290 282 l 1,9,-1
 290 142 l 1,10,-1
 202 142 l 1,11,-1
 202 282 l 1,0,-1
EndSplineSet
EndChar

StartChar: coma
Encoding: 44 44 13
Width: 298
GlyphClass: 1
Flags: W
LayerCount: 2
Fore
SplineSet
239 123 m 1,0,-1
 142 -80 l 1,1,-1
 59 -80 l 1,2,-1
 113 123 l 1,3,-1
 239 123 l 1,0,-1
EndSplineSet
EndChar

StartChar: hyphen
Encoding: 45 45 14
Width: 423
GlyphClass: 1
Flags: W
LayerCount: 2
Fore
SplineSet
71 369 m 1,0,-1
 354 369 l 1,1,-1
 354 282 l 1,2,-1
 71 282 l 1,3,-1
 71 369 l 1,0,-1
EndSplineSet
EndChar

StartChar: period
Encoding: 46 46 15
Width: 251
GlyphClass: 1
Flags: W
LayerCount: 2
Fore
SplineSet
125 123 m 0,0,1
 151 123 151 123 168.5 105 c 128,-1,2
 186 87 186 87 186 61.5 c 128,-1,3
 186 36 186 36 168 18 c 128,-1,4
 150 0 150 0 125 0 c 128,-1,5
 100 0 100 0 81.5 18 c 128,-1,6
 63 36 63 36 63 61.5 c 128,-1,7
 63 87 63 87 81.5 105 c 128,-1,8
 100 123 100 123 125 123 c 0,0,1
EndSplineSet
EndChar

StartChar: slash
Encoding: 47 47 16
Width: 502
GlyphClass: 1
Flags: W
LayerCount: 2
Fore
SplineSet
355 676 m 1,0,-1
 453 676 l 1,1,-1
 147 0 l 1,2,-1
 49 0 l 1,3,-1
 355 676 l 1,0,-1
EndSplineSet
EndChar

StartChar: 0
Encoding: 48 48 17
Width: 616
GlyphClass: 1
Flags: W
LayerCount: 2
Fore
SplineSet
309.256835938 593 m 0,0,1
 250.256835938 592 250.256835938 592 209.256835938 540 c 0,2,3
 172.256835938 493 172.256835938 493 157.256835938 415 c 0,4,5
 144.256835938 340 144.256835938 340 156.256835938 265 c 0,6,7
 168.256835938 187 168.256835938 187 207.256835938 139 c 0,8,9
 248.256835938 87 248.256835938 87 309.256835938 86 c 0,10,11
 368.256835938 86 368.256835938 86 409.256835938 138 c 0,12,13
 446.256835938 186 446.256835938 186 461.256835938 264 c 0,14,15
 474.256835938 339 474.256835938 339 462.256835938 414 c 0,16,17
 450.256835938 492 450.256835938 492 411.256835938 539 c 0,18,19
 370.256835938 592 370.256835938 592 309.256835938 593 c 0,0,1
309.256835938 -4 m 1,20,21
 214.256835938 4 214.256835938 4 149.256835938 77 c 0,22,23
 91.2568359375 144 91.2568359375 144 71.2568359375 248 c 0,24,25
 52.2568359375 347 52.2568359375 347 72.2568359375 446 c 0,26,27
 95.2568359375 548 95.2568359375 548 152.256835938 612 c 0,28,29
 217.256835938 681 217.256835938 681 309.256835938 683 c 1,30,31
 404.256835938 675 404.256835938 675 469.256835938 601 c 0,32,33
 527.256835938 534 527.256835938 534 547.256835938 431 c 0,34,35
 566.256835938 331 566.256835938 331 546.256835938 232 c 0,36,37
 523.256835938 129 523.256835938 129 466.256835938 67 c 0,38,39
 401.256835938 -2 401.256835938 -2 309.256835938 -4 c 1,20,21
EndSplineSet
EndChar

StartChar: 1
Encoding: 49 49 18
Width: 273
GlyphClass: 1
Flags: W
LayerCount: 2
Fore
SplineSet
200 676 m 1,0,-1
 200 0 l 1,1,-1
 113 0 l 1,2,-1
 113 501 l 1,3,-1
 48 501 l 1,4,-1
 136 676 l 1,5,-1
 200 676 l 1,0,-1
EndSplineSet
EndChar

StartChar: 2
Encoding: 50 50 19
Width: 447
GlyphClass: 1
Flags: W
LayerCount: 2
Fore
SplineSet
60.3330078125 0 m 1,0,1
 48.3330078125 54 48.3330078125 54 63.3330078125 106 c 0,2,3
 76.3330078125 149 76.3330078125 149 112.333007812 197 c 0,4,5
 132.333007812 226 132.333007812 226 181.333007812 279 c 0,6,7
 218.333007812 320 218.333007812 320 235.333007812 340 c 0,8,9
 262.333007812 375 262.333007812 375 276.333007812 403 c 0,10,11
 292.333007812 438 292.333007812 438 293.333007812 472 c 0,12,13
 293.333007812 523 293.333007812 523 257.333007812 559 c 128,-1,14
 221.333007812 595 221.333007812 595 170.333007812 595 c 0,15,16
 139.333007812 595 139.333007812 595 113.333007812 581 c 1,17,-1
 61.3330078125 654 l 1,18,19
 109.333007812 684 109.333007812 684 170.333007812 684 c 0,20,21
 258.333007812 684 258.333007812 684 320.333007812 622 c 128,-1,22
 382.333007812 560 382.333007812 560 382.333007812 472 c 1,23,24
 388.333007812 421 388.333007812 421 368.333007812 369 c 0,25,26
 351.333007812 327 351.333007812 327 314.333007812 281 c 0,27,28
 292.333007812 253 292.333007812 253 247.333007812 203 c 0,29,30
 208.333007812 162 208.333007812 162 193.333007812 142 c 0,31,32
 168.333007812 111 168.333007812 111 164.333007812 88 c 1,33,-1
 382.333007812 88 l 1,34,-1
 382.333007812 0 l 1,35,-1
 60.3330078125 0 l 1,0,1
EndSplineSet
EndChar

StartChar: 3
Encoding: 51 51 20
Width: 381
GlyphClass: 1
Flags: W
LayerCount: 2
Fore
SplineSet
106 684 m 0,0,1
 72 684 72 684 57 681 c 1,2,-1
 75 588 l 1,3,4
 89 595 89 595 106 595 c 0,5,6
 136 595 136 595 156 575 c 128,-1,7
 176 555 176 555 176 526 c 128,-1,8
 176 497 176 497 154 473 c 0,9,10
 126 440 126 440 75 437 c 1,11,-1
 75 348 l 1,12,13
 110 347 110 347 146 331.5 c 128,-1,14
 182 316 182 316 203 295 c 0,15,16
 239 256 239 256 238.5 204.5 c 128,-1,17
 238 153 238 153 202.5 117 c 128,-1,18
 167 81 167 81 116 81 c 0,19,20
 94 81 94 81 75 88 c 1,21,-1
 57 -1 l 1,22,23
 99 -8 99 -8 116 -8 c 0,24,25
 204 -8 204 -8 266 54 c 128,-1,26
 328 116 328 116 328 203.5 c 128,-1,27
 328 291 328 291 267 356 c 0,28,29
 225 396 225 396 188 398 c 1,30,31
 266 459 266 459 266 525 c 128,-1,32
 266 591 266 591 219.5 637.5 c 128,-1,33
 173 684 173 684 106 684 c 0,0,1
EndSplineSet
EndChar

StartChar: 4
Encoding: 52 52 21
Width: 476
GlyphClass: 1
Flags: W
LayerCount: 2
Fore
SplineSet
283 676 m 1,0,-1
 359 676 l 1,1,-1
 359 373 l 1,2,-1
 419 373 l 1,3,-1
 419 285 l 1,4,-1
 359 285 l 1,5,-1
 359 0 l 1,6,-1
 271 0 l 1,7,-1
 271 285 l 1,8,-1
 79 285 l 1,9,-1
 55 344 l 1,10,-1
 283 676 l 1,0,-1
271 478 m 1,11,-1
 187 373 l 1,12,-1
 271 373 l 1,13,-1
 271 478 l 1,11,-1
EndSplineSet
EndChar

StartChar: 5
Encoding: 53 53 22
Width: 501
GlyphClass: 1
Flags: W
LayerCount: 2
Fore
SplineSet
190 494 m 1,0,1
 227 501 227 501 264 494 c 0,2,3
 291 490 291 490 327 475 c 0,4,5
 384 453 384 453 414 397 c 0,6,7
 445 338 445 338 444 245 c 0,8,9
 443 180 443 180 418 121 c 128,-1,10
 393 62 393 62 351 33 c 0,11,12
 307 2 307 2 254 -4 c 0,13,14
 199 -11 199 -11 146 10 c 0,15,16
 90 35 90 35 49 89 c 1,17,-1
 111 158 l 1,18,19
 207 80 207 80 285 110 c 0,20,21
 316 121 316 121 336 158 c 0,22,23
 358 198 358 198 357 252 c 0,24,25
 357 323 357 323 324 360 c 0,26,27
 293 394 293 394 238 400 c 0,28,29
 188 404 188 404 126 386 c 1,30,-1
 74 432 l 1,31,-1
 163 676 l 1,32,-1
 397 676 l 1,33,-1
 397 589 l 1,34,-1
 223 589 l 1,35,-1
 190 494 l 1,0,1
EndSplineSet
EndChar

StartChar: 6
Encoding: 54 54 23
Width: 594
GlyphClass: 1
Flags: W
LayerCount: 2
Fore
SplineSet
148 229 m 256,0,1
 148 167 148 167 192 123 c 128,-1,2
 236 79 236 79 298.5 79 c 128,-1,3
 361 79 361 79 405 123 c 128,-1,4
 449 167 449 167 449 229.5 c 128,-1,5
 449 292 449 292 405 336 c 128,-1,6
 361 380 361 380 298.5 380 c 128,-1,7
 236 380 236 380 192 335.5 c 128,-1,8
 148 291 148 291 148 229 c 256,0,1
198 417 m 1,9,10
 236 458 236 458 323 458 c 128,-1,11
 410 458 410 458 469 399 c 0,12,13
 539 328 539 328 538.5 229 c 128,-1,14
 538 130 538 130 468 60 c 128,-1,15
 398 -10 398 -10 298.5 -10 c 128,-1,16
 199 -10 199 -10 129 59 c 0,17,18
 61 128 61 128 61 249 c 2,19,-1
 61 250 l 2,20,21
 61 370 61 370 125.5 460.5 c 128,-1,22
 190 551 190 551 301 676 c 1,23,-1
 416 676 l 1,24,25
 263 517 263 517 198 417 c 1,9,10
EndSplineSet
EndChar

StartChar: 7
Encoding: 55 55 24
Width: 413
GlyphClass: 1
Flags: W
LayerCount: 2
Fore
SplineSet
360 676 m 1,0,1
 359 590 359 590 342 519 c 0,2,3
 328 460 328 460 300 402 c 0,4,5
 283 368 283 368 246 308 c 0,6,7
 212 253 212 253 197 223 c 0,8,9
 172 174 172 174 160 126 c 0,10,11
 145 68 145 68 143 0 c 1,12,-1
 58 0 l 1,13,14
 60 77 60 77 80 151 c 0,15,16
 97 211 97 211 129 275 c 0,17,18
 147 313 147 313 187 382 c 0,19,20
 228 454 228 454 244 487 c 0,21,22
 269 542 269 542 269 589 c 1,23,-1
 59 589 l 1,24,-1
 59 676 l 1,25,-1
 360 676 l 1,0,1
EndSplineSet
EndChar

StartChar: 8
Encoding: 56 56 25
Width: 530
GlyphClass: 1
Flags: W
LayerCount: 2
Fore
SplineSet
266.52734375 81 m 256,0,1
 320.52734375 81 320.52734375 81 353.52734375 114 c 128,-1,2
 386.52734375 147 386.52734375 147 385.52734375 203.5 c 128,-1,3
 384.52734375 260 384.52734375 260 349.52734375 299 c 0,4,5
 317.52734375 336 317.52734375 336 266.52734375 347 c 1,6,7
 209.52734375 335 209.52734375 335 178.52734375 298 c 128,-1,8
 147.52734375 261 147.52734375 261 148.02734375 203.5 c 128,-1,9
 148.52734375 146 148.52734375 146 180.52734375 113.5 c 128,-1,10
 212.52734375 81 212.52734375 81 266.52734375 81 c 256,0,1
266.52734375 -8 m 0,11,12
 206.52734375 -8 206.52734375 -8 156.52734375 25 c 0,13,14
 111.52734375 56 111.52734375 56 85.52734375 105 c 0,15,16
 59.52734375 153 59.52734375 153 59.02734375 204 c 128,-1,17
 58.52734375 255 58.52734375 255 67.02734375 286.5 c 128,-1,18
 75.52734375 318 75.52734375 318 96.52734375 344 c 0,19,20
 115.52734375 369 115.52734375 369 156.52734375 398 c 1,21,22
 100.52734375 459 100.52734375 459 100.52734375 526 c 0,23,24
 102.52734375 572 102.52734375 572 127.52734375 610 c 0,25,26
 150.52734375 644 150.52734375 644 188.02734375 664 c 128,-1,27
 225.52734375 684 225.52734375 684 266.52734375 684 c 0,28,29
 312.52734375 683 312.52734375 683 350.52734375 661.5 c 128,-1,30
 388.52734375 640 388.52734375 640 410.52734375 604 c 128,-1,31
 432.52734375 568 432.52734375 568 433.52734375 526 c 0,32,33
 433.52734375 459 433.52734375 459 370.52734375 400 c 1,34,35
 414.52734375 369 414.52734375 369 434.52734375 346 c 0,36,37
 457.52734375 320 457.52734375 320 466.02734375 289 c 128,-1,38
 474.52734375 258 474.52734375 258 474.52734375 204.5 c 128,-1,39
 474.52734375 151 474.52734375 151 448.52734375 101.5 c 128,-1,40
 422.52734375 52 422.52734375 52 377.52734375 24 c 0,41,42
 327.52734375 -8 327.52734375 -8 266.52734375 -8 c 0,11,12
266.52734375 439 m 1,43,44
 300.52734375 447 300.52734375 447 320.52734375 474 c 0,45,46
 339.52734375 498 339.52734375 498 340.52734375 527 c 128,-1,47
 341.52734375 556 341.52734375 556 322.52734375 574 c 0,48,49
 303.52734375 596 303.52734375 596 266.52734375 595.5 c 128,-1,50
 229.52734375 595 229.52734375 595 211.52734375 573 c 0,51,52
 194.52734375 554 194.52734375 554 195.52734375 525.5 c 128,-1,53
 196.52734375 497 196.52734375 497 215.52734375 473 c 0,54,55
 235.52734375 447 235.52734375 447 266.52734375 439 c 1,43,44
EndSplineSet
EndChar

StartChar: 9
Encoding: 57 57 26
Width: 495
GlyphClass: 1
Flags: W
LayerCount: 2
Fore
SplineSet
360 490 m 0,0,1
 359 542 359 542 331 578 c 0,2,3
 299 614 299 614 246.5 613 c 128,-1,4
 194 612 194 612 163.5 577 c 128,-1,5
 133 542 133 542 134 490 c 128,-1,6
 135 438 135 438 164 404 c 0,7,8
 196 367 196 367 247.5 368.5 c 128,-1,9
 299 370 299 370 330 404.5 c 128,-1,10
 361 439 361 439 360 490 c 0,0,1
319 316 m 1,11,12
 265 289 265 289 214 295 c 0,13,14
 168 300 168 300 130 331 c 0,15,16
 95 360 95 360 75 403 c 128,-1,17
 55 446 55 446 55 490 c 0,18,19
 58 575 58 575 104 628 c 0,20,21
 155 685 155 685 247 685 c 0,22,23
 308 686 308 686 353 656 c 0,24,25
 393 630 393 630 415 586 c 0,26,27
 435 545 435 545 436 498 c 0,28,29
 435 397 435 397 414 316 c 0,30,31
 397 251 397 251 363 197 c 0,32,33
 344 165 344 165 305 116 c 0,34,35
 274 78 274 78 263 59 c 0,36,37
 247 29 247 29 245 0 c 1,38,-1
 144 0 l 1,39,40
 153 63 153 63 189 123 c 0,41,42
 211 159 211 159 259 215 c 0,43,44
 290 252 290 252 301 268 c 0,45,46
 318 296 318 296 319 316 c 1,11,12
EndSplineSet
EndChar

StartChar: colon
Encoding: 58 58 27
Width: 262
GlyphClass: 1
Flags: W
LayerCount: 2
Fore
SplineSet
132 123 m 0,0,1
 158 123 158 123 175.5 105 c 128,-1,2
 193 87 193 87 193 61.5 c 128,-1,3
 193 36 193 36 175 18 c 128,-1,4
 157 0 157 0 132 0 c 128,-1,5
 107 0 107 0 88.5 18 c 128,-1,6
 70 36 70 36 70 61.5 c 128,-1,7
 70 87 70 87 88.5 105 c 128,-1,8
 107 123 107 123 132 123 c 0,0,1
132 364 m 0,9,10
 158 364 158 364 175.5 346 c 128,-1,11
 193 328 193 328 193 302 c 128,-1,12
 193 276 193 276 175 258.5 c 128,-1,13
 157 241 157 241 132 241 c 128,-1,14
 107 241 107 241 88.5 258.5 c 128,-1,15
 70 276 70 276 70 302 c 128,-1,16
 70 328 70 328 88.5 346 c 128,-1,17
 107 364 107 364 132 364 c 0,9,10
EndSplineSet
EndChar

StartChar: semicolon
Encoding: 59 59 28
Width: 297
GlyphClass: 1
Flags: W
LayerCount: 2
Fore
SplineSet
233 123 m 1,0,-1
 136 -80 l 1,1,-1
 53 -80 l 1,2,-1
 107 123 l 1,3,-1
 233 123 l 1,0,-1
172 364 m 0,4,5
 197 364 197 364 214.5 346 c 128,-1,6
 232 328 232 328 232 302 c 128,-1,7
 232 276 232 276 214.5 258.5 c 128,-1,8
 197 241 197 241 171.5 241 c 128,-1,9
 146 241 146 241 128.5 258.5 c 128,-1,10
 111 276 111 276 111 302 c 128,-1,11
 111 328 111 328 128.5 346 c 128,-1,12
 146 364 146 364 172 364 c 0,4,5
EndSplineSet
EndChar

StartChar: less
Encoding: 60 60 29
Width: 405
GlyphClass: 1
Flags: W
LayerCount: 2
Fore
SplineSet
339 105 m 1,0,-1
 187 280 l 1,1,-1
 339 454 l 1,2,-1
 339 567 l 1,3,-1
 54 280 l 1,4,-1
 339 -8 l 1,5,-1
 339 105 l 1,0,-1
EndSplineSet
EndChar

StartChar: equal
Encoding: 61 61 30
Width: 428
GlyphClass: 1
Flags: W
LayerCount: 2
Fore
SplineSet
74 456 m 1,0,-1
 357 456 l 1,1,-1
 357 369 l 1,2,-1
 74 369 l 1,3,-1
 74 456 l 1,0,-1
74 282 m 1,4,-1
 357 282 l 1,5,-1
 357 194 l 1,6,-1
 74 194 l 1,7,-1
 74 282 l 1,4,-1
EndSplineSet
EndChar

StartChar: greater
Encoding: 62 62 31
Width: 402
GlyphClass: 1
Flags: W
LayerCount: 2
Fore
SplineSet
64 105 m 1,0,-1
 216 280 l 1,1,-1
 64 454 l 1,2,-1
 64 567 l 1,3,-1
 349 280 l 1,4,-1
 64 -8 l 1,5,-1
 64 105 l 1,0,-1
EndSplineSet
EndChar

StartChar: question
Encoding: 63 63 32
Width: 428
GlyphClass: 1
Flags: W
LayerCount: 2
Fore
SplineSet
214 608 m 0,0,1
 187 608 187 608 161 599 c 0,2,3
 99 577 99 577 70 518 c 0,4,5
 56 487 56 487 55 457 c 2,6,-1
 55 428 l 1,7,-1
 143 457 l 1,8,9
 144 473 144 473 148 481 c 0,10,11
 160 507 160 507 189 517 c 0,12,13
 201 521 201 521 213 521 c 0,14,15
 228 521 228 521 243 514 c 0,16,17
 270 501 270 501 280 473 c 0,18,19
 284 462 284 462 284 451 c 0,20,21
 284 436 284 436 276 419 c 0,22,23
 262 390 262 390 229 358 c 1,24,25
 162 308 162 308 129 238 c 0,26,27
 107 194 107 194 107 148 c 1,28,-1
 195 148 l 1,29,30
 195 174 195 174 207 200 c 0,31,32
 229 245 229 245 269 281 c 0,33,34
 328 327 328 327 355 381 c 0,35,36
 370 415 370 415 371 450 c 0,37,38
 371 477 371 477 362 503 c 0,39,40
 340 563 340 563 282 592 c 0,41,42
 248 608 248 608 214 608 c 0,0,1
106 87 m 1,43,-1
 106 -1 l 1,44,-1
 195 -1 l 1,45,-1
 195 87 l 1,46,-1
 106 87 l 1,43,-1
EndSplineSet
EndChar

StartChar: at
Encoding: 64 64 33
Width: 709
GlyphClass: 1
Flags: W
LayerCount: 2
Fore
SplineSet
437 264 m 1,0,-1
 437 309 l 1,1,2
 433 328 433 328 415 345 c 0,3,4
 390 370 390 370 356.5 370 c 128,-1,5
 323 370 323 370 299 345.5 c 128,-1,6
 275 321 275 321 275 286.5 c 128,-1,7
 275 252 275 252 299 228 c 128,-1,8
 323 204 323 204 357.5 204 c 128,-1,9
 392 204 392 204 415 227 c 0,10,11
 433 245 433 245 437 264 c 1,0,-1
436 170 m 1,12,13
 413 136 413 136 356 136 c 0,14,15
 287 136 287 136 237.5 177 c 128,-1,16
 188 218 188 218 188 286.5 c 128,-1,17
 188 355 188 355 237.5 398.5 c 128,-1,18
 287 442 287 442 356 442 c 0,19,20
 417 442 417 442 436 411 c 1,21,-1
 436 433 l 1,22,-1
 520 433 l 1,23,-1
 519 221 l 2,24,25
 519 198 519 198 525.5 198.5 c 128,-1,26
 532 199 532 199 542 214 c 0,27,28
 567 249 567 249 567 319 c 128,-1,29
 567 389 567 389 514 442.5 c 128,-1,30
 461 496 461 496 357 496 c 128,-1,31
 253 496 253 496 200 442.5 c 128,-1,32
 147 389 147 389 147 294 c 128,-1,33
 147 199 147 199 208.5 137.5 c 128,-1,34
 270 76 270 76 356 76 c 0,35,36
 415 76 415 76 458 102 c 1,37,-1
 519 40 l 1,38,39
 437 -8 437 -8 356 -8 c 0,40,41
 235 -8 235 -8 148.5 78.5 c 128,-1,42
 62 165 62 165 62 286.5 c 128,-1,43
 62 408 62 408 148.5 494 c 128,-1,44
 235 580 235 580 356.5 580 c 128,-1,45
 478 580 478 580 564 493.5 c 128,-1,46
 650 407 650 407 650 317.5 c 128,-1,47
 650 228 650 228 604 173 c 0,48,49
 566 128 566 128 520 128 c 0,50,51
 510 128 510 128 499 131 c 0,52,53
 441 143 441 143 436 170 c 1,12,13
EndSplineSet
EndChar

StartChar: A
Encoding: 65 65 34
Width: 500
GlyphClass: 1
Flags: W
LayerCount: 2
Fore
SplineSet
303.5 327 m 1,0,-1
 248.5 485 l 1,1,-1
 193.5 327 l 1,2,-1
 303.5 327 l 1,0,-1
507.5 0 m 1,3,-1
 418.5 0 l 1,4,-1
 334.5 239 l 1,5,-1
 162.5 239 l 1,6,-1
 78.5 0 l 1,7,-1
 -10.5 0 l 1,8,-1
 248.5 712 l 1,9,-1
 507.5 0 l 1,3,-1
EndSplineSet
EndChar

StartChar: B
Encoding: 66 66 35
Width: 497
GlyphClass: 1
Flags: W
LayerCount: 2
Fore
SplineSet
205 676 m 2,0,1
 266 676 266 676 304.5 637.5 c 128,-1,2
 343 599 343 599 342 534 c 0,3,4
 342 506 342 506 328 489 c 128,-1,5
 314 472 314 472 283 459 c 1,6,7
 330 446 330 446 366 410 c 0,8,9
 398 376 398 376 416 330 c 0,10,11
 432 286 432 286 434 242 c 0,12,13
 433 187 433 187 406.5 130.5 c 128,-1,14
 380 74 380 74 338 39 c 0,15,16
 292 0 292 0 240 0 c 2,17,-1
 73 0 l 1,18,-1
 73 676 l 1,19,-1
 205 676 l 2,0,1
157 391 m 1,20,-1
 157 88 l 1,21,-1
 240 88 l 2,22,23
 271 88 271 88 296 108 c 128,-1,24
 321 128 321 128 335 163.5 c 128,-1,25
 349 199 349 199 348 241.5 c 128,-1,26
 347 284 347 284 326.5 318 c 128,-1,27
 306 352 306 352 273 372 c 128,-1,28
 240 392 240 392 202 391 c 2,29,-1
 157 391 l 1,20,-1
157 589 m 1,30,-1
 157 481 l 1,31,-1
 213 481 l 2,32,33
 231 483 231 483 245 496.5 c 128,-1,34
 259 510 259 510 259 533.5 c 128,-1,35
 259 557 259 557 244 573 c 128,-1,36
 229 589 229 589 205 589 c 2,37,-1
 157 589 l 1,30,-1
EndSplineSet
EndChar

StartChar: C
Encoding: 67 67 36
Width: 529
GlyphClass: 1
Flags: W
LayerCount: 2
Fore
SplineSet
391 683 m 0,0,1
 253 683 253 683 155.5 581.5 c 128,-1,2
 58 480 58 480 58 337.5 c 128,-1,3
 58 195 58 195 155.5 94 c 128,-1,4
 253 -7 253 -7 391 -7 c 0,5,6
 427 -7 427 -7 462 1 c 1,7,-1
 462 92 l 1,8,9
 427 81 427 81 391 81 c 0,10,11
 289 81 289 81 216 155.5 c 128,-1,12
 143 230 143 230 143 337 c 128,-1,13
 143 444 143 444 216 519.5 c 128,-1,14
 289 595 289 595 391 595 c 0,15,16
 427 595 427 595 462 583 c 1,17,-1
 462 675 l 1,18,19
 427 683 427 683 391 683 c 0,0,1
EndSplineSet
EndChar

StartChar: D
Encoding: 68 68 37
Width: 500
GlyphClass: 1
Flags: W
LayerCount: 2
Fore
SplineSet
157.497070312 587 m 1,0,-1
 157.497070312 89 l 1,1,2
 257.497070312 89 257.497070312 89 322.497070312 156 c 0,3,4
 395.497070312 232 395.497070312 232 395.497070312 338 c 128,-1,5
 395.497070312 444 395.497070312 444 322.497070312 520 c 0,6,7
 257.497070312 587 257.497070312 587 157.497070312 587 c 1,0,-1
135.497070312 676 m 2,8,9
 294.497070312 675 294.497070312 675 382.497070312 583 c 0,10,11
 479.497070312 481 479.497070312 481 479.997070312 338 c 128,-1,12
 480.497070312 195 480.497070312 195 382.497070312 93 c 0,13,14
 293.497070312 1 293.497070312 1 135.497070312 0 c 2,15,-1
 73.4970703125 0 l 1,16,-1
 73.4970703125 676 l 1,17,-1
 135.497070312 676 l 2,8,9
EndSplineSet
EndChar

StartChar: E
Encoding: 69 69 38
Width: 492
GlyphClass: 1
Flags: W
LayerCount: 2
Fore
SplineSet
421 676 m 1,0,-1
 421 589 l 1,1,-1
 157 589 l 1,2,-1
 157 454 l 1,3,-1
 421 454 l 1,4,-1
 421 367 l 1,5,-1
 157 367 l 1,6,-1
 157 88 l 1,7,-1
 421 88 l 1,8,-1
 421 0 l 1,9,-1
 73 0 l 1,10,-1
 73 676 l 1,11,-1
 421 676 l 1,0,-1
EndSplineSet
EndChar

StartChar: F
Encoding: 70 70 39
Width: 488
GlyphClass: 1
Flags: W
LayerCount: 2
Fore
SplineSet
421 676 m 1,0,-1
 421 589 l 1,1,-1
 157 589 l 1,2,-1
 157 454 l 1,3,-1
 421 454 l 1,4,-1
 421 367 l 1,5,-1
 157 367 l 1,6,-1
 157 0 l 1,7,-1
 73 0 l 1,8,-1
 73 676 l 1,9,-1
 421 676 l 1,0,-1
EndSplineSet
EndChar

StartChar: G
Encoding: 71 71 40
Width: 695
GlyphClass: 1
Flags: W
LayerCount: 2
Fore
SplineSet
620 92 m 1,0,1
 520 -7 520 -7 391 -7 c 0,2,3
 253 -7 253 -7 155.5 94 c 128,-1,4
 58 195 58 195 58 337.5 c 128,-1,5
 58 480 58 480 155.5 581.5 c 128,-1,6
 253 683 253 683 391 683 c 0,7,8
 520 683 520 683 636 573 c 1,9,-1
 572 514 l 1,10,11
 485 595 485 595 391 595 c 0,12,13
 289 595 289 595 216 519.5 c 128,-1,14
 143 444 143 444 143 337 c 128,-1,15
 143 230 143 230 216 155.5 c 128,-1,16
 289 81 289 81 391 81 c 0,17,18
 479 81 479 81 536 129 c 1,19,-1
 536 333 l 1,20,-1
 620 333 l 1,21,-1
 620 92 l 1,0,1
EndSplineSet
EndChar

StartChar: H
Encoding: 72 72 41
Width: 520
GlyphClass: 1
Flags: W
LayerCount: 2
Fore
SplineSet
157 367 m 1,0,-1
 157 0 l 1,1,-1
 73 0 l 1,2,-1
 73 676 l 1,3,-1
 157 676 l 1,4,-1
 157 454 l 1,5,-1
 358 454 l 1,6,-1
 358 676 l 1,7,-1
 443 676 l 1,8,-1
 443 0 l 1,9,-1
 358 0 l 1,10,-1
 358 367 l 1,11,-1
 157 367 l 1,0,-1
EndSplineSet
EndChar

StartChar: I
Encoding: 73 73 42
Width: 234
GlyphClass: 1
Flags: W
LayerCount: 2
Fore
SplineSet
157 676 m 1,0,-1
 157 0 l 1,1,-1
 73 0 l 1,2,-1
 73 676 l 1,3,-1
 157 676 l 1,0,-1
EndSplineSet
EndChar

StartChar: J
Encoding: 74 74 43
Width: 392
GlyphClass: 1
Flags: W
LayerCount: 2
Fore
SplineSet
317 144 m 2,0,1
 317 74 317 74 281 36 c 0,2,3
 241 -5 241 -5 185 -5 c 128,-1,4
 129 -5 129 -5 90 36 c 128,-1,5
 51 77 51 77 51 145 c 1,6,-1
 118 172 l 1,7,8
 129 109 129 109 146 93 c 0,9,10
 159 82 159 82 181 82 c 2,11,-1
 183 82 l 2,12,13
 206 82 206 82 221 97 c 0,14,15
 233 110 233 110 234 148 c 2,16,-1
 234 676 l 1,17,-1
 317 676 l 1,18,-1
 317 144 l 2,0,1
EndSplineSet
EndChar

StartChar: K
Encoding: 75 75 44
Width: 518
GlyphClass: 1
Flags: W
LayerCount: 2
Fore
SplineSet
157 331 m 1,0,-1
 157 0 l 1,1,-1
 73 0 l 1,2,-1
 73 676 l 1,3,-1
 157 676 l 1,4,-1
 157 475 l 1,5,-1
 311 676 l 1,6,-1
 417 676 l 1,7,-1
 218 410 l 1,8,-1
 466 0 l 1,9,-1
 364 0 l 1,10,-1
 163 338 l 1,11,-1
 157 331 l 1,0,-1
EndSplineSet
EndChar

StartChar: L
Encoding: 76 76 45
Width: 452
GlyphClass: 1
Flags: W
LayerCount: 2
Fore
SplineSet
73 0 m 1,0,-1
 73 676 l 1,1,-1
 157 676 l 1,2,-1
 157 88 l 1,3,-1
 390 88 l 1,4,-1
 390 0 l 1,5,-1
 73 0 l 1,0,-1
EndSplineSet
EndChar

StartChar: M
Encoding: 77 77 46
Width: 700
GlyphClass: 1
Flags: W
LayerCount: 2
Fore
SplineSet
348 188 m 1,0,-1
 594 717 l 1,1,-1
 635 0 l 1,2,-1
 551 0 l 1,3,-1
 521 379 l 1,4,-1
 348 -20 l 1,5,-1
 173 379 l 1,6,-1
 144 0 l 1,7,-1
 60 0 l 1,8,-1
 106 716 l 1,9,-1
 348 188 l 1,0,-1
EndSplineSet
EndChar

StartChar: N
Encoding: 78 78 47
Width: 518
GlyphClass: 1
Flags: W
LayerCount: 2
Fore
SplineSet
73 705 m 1,0,-1
 356 258 l 1,1,-1
 356 676 l 1,2,-1
 441 676 l 1,3,-1
 441 -34 l 1,4,-1
 155 416 l 1,5,-1
 155 0 l 1,6,-1
 73 0 l 1,7,-1
 73 705 l 1,0,-1
EndSplineSet
EndChar

StartChar: O
Encoding: 79 79 48
Width: 789
GlyphClass: 1
Flags: W
LayerCount: 2
Fore
SplineSet
391 684 m 256,0,1
 529 684 529 684 626.5 582.5 c 128,-1,2
 724 481 724 481 724 338 c 128,-1,3
 724 195 724 195 626.5 93.5 c 128,-1,4
 529 -8 529 -8 391 -8 c 128,-1,5
 253 -8 253 -8 155.5 93.5 c 128,-1,6
 58 195 58 195 58 338 c 128,-1,7
 58 481 58 481 155.5 582.5 c 128,-1,8
 253 684 253 684 391 684 c 256,0,1
391 596 m 256,9,10
 289 596 289 596 216 520 c 128,-1,11
 143 444 143 444 143 337.5 c 128,-1,12
 143 231 143 231 216 155.5 c 128,-1,13
 289 80 289 80 391 80 c 128,-1,14
 493 80 493 80 566 155.5 c 128,-1,15
 639 231 639 231 639 337.5 c 128,-1,16
 639 444 639 444 566 520 c 128,-1,17
 493 596 493 596 391 596 c 256,9,10
EndSplineSet
EndChar

StartChar: P
Encoding: 80 80 49
Width: 483
GlyphClass: 1
Flags: W
LayerCount: 2
Fore
SplineSet
157 366 m 1,0,-1
 157 0 l 1,1,-1
 73 0 l 1,2,-1
 73 676 l 1,3,4
 208 676 208 676 266 672 c 0,5,6
 338 668 338 668 369.5 653 c 128,-1,7
 401 638 401 638 411 606 c 0,8,9
 419 581 419 581 420 522 c 0,10,11
 420 467 420 467 409 436.5 c 128,-1,12
 398 406 398 406 370 391 c 128,-1,13
 342 376 342 376 288 371 c 0,14,15
 246 367 246 367 157 366 c 1,0,-1
157 588 m 1,16,-1
 157 454 l 1,17,18
 239 454 239 454 271 458 c 0,19,20
 310 463 310 463 322.5 476 c 128,-1,21
 335 489 335 489 335 521.5 c 128,-1,22
 335 554 335 554 322.5 567.5 c 128,-1,23
 310 581 310 581 271 585 c 0,24,25
 240 588 240 588 157 588 c 1,16,-1
EndSplineSet
EndChar

StartChar: Q
Encoding: 81 81 50
Width: 789
GlyphClass: 1
Flags: W
LayerCount: 2
Fore
SplineSet
390.502929688 599 m 256,0,1
 288.502929688 599 288.502929688 599 215.502929688 524 c 128,-1,2
 142.502929688 449 142.502929688 449 142.502929688 341.5 c 128,-1,3
 142.502929688 234 142.502929688 234 215.502929688 159 c 128,-1,4
 288.502929688 84 288.502929688 84 390.502929688 84 c 128,-1,5
 492.502929688 84 492.502929688 84 565.502929688 159 c 128,-1,6
 638.502929688 234 638.502929688 234 638.502929688 341.5 c 128,-1,7
 638.502929688 449 638.502929688 449 565.502929688 524 c 128,-1,8
 492.502929688 599 492.502929688 599 390.502929688 599 c 256,0,1
529.502929688 26 m 1,9,10
 538.502929688 21 538.502929688 21 549.502929688 12 c 0,11,12
 578.502929688 -3 578.502929688 -3 588.502929688 -6 c 0,13,14
 592.502929688 -8 592.502929688 -8 596.502929688 -8 c 0,15,16
 603.502929688 -8 603.502929688 -8 609.502929688 -3 c 0,17,18
 620.502929688 3 620.502929688 3 624.502929688 15 c 0,19,20
 625.502929688 18 625.502929688 18 627.502929688 46 c 1,21,-1
 712.502929688 46 l 1,22,23
 709.502929688 5 709.502929688 5 704.502929688 -8 c 0,24,25
 692.502929688 -55 692.502929688 -55 651.502929688 -79 c 0,26,27
 624.502929688 -94 624.502929688 -94 596.502929688 -94 c 0,28,29
 581.502929688 -94 581.502929688 -94 564.502929688 -90 c 0,30,31
 538.502929688 -83 538.502929688 -83 494.502929688 -53 c 1,32,33
 459.502929688 -35 459.502929688 -35 446.502929688 -31 c 0,34,35
 439.502929688 -29 439.502929688 -29 432.502929688 -29 c 0,36,37
 420.502929688 -29 420.502929688 -29 408.502929688 -35 c 0,38,39
 390.502929688 -46 390.502929688 -46 384.502929688 -68 c 0,40,41
 383.502929688 -71 383.502929688 -71 381.502929688 -96 c 1,42,-1
 296.502929688 -96 l 1,43,44
 299.502929688 -56 299.502929688 -56 303.502929688 -44 c 0,45,46
 309.502929688 -17 309.502929688 -17 323.502929688 2 c 1,47,48
 228.502929688 21 228.502929688 21 155.502929688 97 c 0,49,50
 58.5029296875 198 58.5029296875 198 58.0029296875 341 c 128,-1,51
 57.5029296875 484 57.5029296875 484 155.002929688 585.5 c 128,-1,52
 252.502929688 687 252.502929688 687 390.502929688 687 c 128,-1,53
 528.502929688 687 528.502929688 687 626.002929688 585.5 c 128,-1,54
 723.502929688 484 723.502929688 484 723.502929688 341.5 c 128,-1,55
 723.502929688 199 723.502929688 199 626.502929688 97 c 0,56,57
 581.502929688 52 581.502929688 52 529.502929688 26 c 1,9,10
EndSplineSet
EndChar

StartChar: R
Encoding: 82 82 51
Width: 518
GlyphClass: 1
Flags: W
LayerCount: 2
Fore
SplineSet
120 676 m 0,0,1
 101 676 101 676 73 676 c 1,2,-1
 73 0 l 1,3,-1
 157 0 l 1,4,-1
 157 366 l 1,5,-1
 232 366 l 1,6,-1
 364 0 l 1,7,-1
 466 0 l 1,8,-1
 320 381 l 1,9,-1
 323 384 l 1,10,11
 357 396 357 396 375 409 c 0,12,13
 398 424 398 424 409 449 c 0,14,15
 420 477 420 477 420 518 c 0,16,17
 420 591 420 591 392 623.5 c 128,-1,18
 364 656 364 656 297 668 c 0,19,20
 244 676 244 676 120 676 c 0,0,1
232 589 m 2,21,22
 270 589 270 589 289 585 c 0,23,24
 313 580 313 580 324.5 564.5 c 128,-1,25
 336 549 336 549 335.5 519.5 c 128,-1,26
 335 490 335 490 325 477 c 128,-1,27
 315 464 315 464 292 460 c 0,28,29
 279 457 279 457 242 455 c 2,30,-1
 230 454 l 2,31,32
 216 454 216 454 186 454 c 2,33,-1
 157 454 l 1,34,-1
 157 588 l 1,35,-1
 232 589 l 2,21,22
EndSplineSet
EndChar

StartChar: S
Encoding: 83 83 52
Width: 521
GlyphClass: 1
Flags: W
LayerCount: 2
Fore
SplineSet
257 346 m 0,0,1
 187 371 187 371 144 415.5 c 128,-1,2
 101 460 101 460 101 525.5 c 128,-1,3
 101 591 101 591 145.5 637 c 128,-1,4
 190 683 190 683 253.5 683 c 128,-1,5
 317 683 317 683 361 637 c 0,6,7
 387 612 387 612 404 557 c 1,8,-1
 328 525 l 1,9,10
 314 564 314 564 302 575 c 0,11,12
 283 595 283 595 254.5 595.5 c 128,-1,13
 226 596 226 596 206 575.5 c 128,-1,14
 186 555 186 555 186 526 c 128,-1,15
 186 497 186 497 206 475 c 0,16,17
 229 452 229 452 268 433 c 1,18,19
 344 407 344 407 397 352 c 0,20,21
 457 291 457 291 457.5 204 c 128,-1,22
 458 117 458 117 398 55 c 128,-1,23
 338 -7 338 -7 254 -7 c 128,-1,24
 170 -7 170 -7 111 54 c 0,25,26
 64 104 64 104 50 191 c 1,27,-1
 132 222 l 1,28,29
 140 147 140 147 170 116 c 0,30,31
 205 80 205 80 254 80 c 128,-1,32
 303 80 303 80 338.5 116.5 c 128,-1,33
 374 153 374 153 374 204 c 128,-1,34
 374 255 374 255 339 291 c 0,35,36
 305 326 305 326 257 346 c 0,0,1
EndSplineSet
EndChar

StartChar: T
Encoding: 84 84 53
Width: 491
GlyphClass: 1
Flags: W
LayerCount: 2
Fore
SplineSet
287 589 m 1,0,-1
 287 0 l 1,1,-1
 203 0 l 1,2,-1
 203 589 l 1,3,-1
 51 589 l 1,4,-1
 51 676 l 1,5,-1
 438 676 l 1,6,-1
 438 589 l 1,7,-1
 287 589 l 1,0,-1
EndSplineSet
EndChar

StartChar: U
Encoding: 85 85 54
Width: 511
GlyphClass: 1
Flags: W
LayerCount: 2
Fore
SplineSet
354 676 m 1,0,-1
 438 676 l 1,1,-1
 438 200 l 2,2,3
 439 145 439 145 417 97.5 c 128,-1,4
 395 50 395 50 354 24 c 0,5,6
 311 -5 311 -5 253.5 -5 c 128,-1,7
 196 -5 196 -5 153 28 c 0,8,9
 113 59 113 59 91 113 c 0,10,11
 69 164 69 164 68 224 c 2,12,-1
 68 676 l 1,13,-1
 153 676 l 1,14,-1
 153 224 l 2,15,16
 153 84 153 84 254 83 c 0,17,18
 306 82 306 82 331 125 c 0,19,20
 353 162 353 162 354 224 c 2,21,-1
 354 676 l 1,0,-1
EndSplineSet
EndChar

StartChar: V
Encoding: 86 86 55
Width: 476
GlyphClass: 1
Flags: W
LayerCount: 2
Fore
SplineSet
47 676 m 1,0,-1
 136 676 l 1,1,-1
 237 227 l 1,2,-1
 338 676 l 1,3,-1
 427 676 l 1,4,-1
 237 -36 l 1,5,-1
 47 676 l 1,0,-1
EndSplineSet
EndChar

StartChar: W
Encoding: 87 87 56
Width: 727
GlyphClass: 1
Flags: W
LayerCount: 2
Fore
SplineSet
319 126 m 1,0,-1
 319 676 l 1,1,-1
 403 676 l 1,2,-1
 403 126 l 1,3,4
 407 119 407 119 416 109 c 0,5,6
 443 82 443 82 479.5 82 c 128,-1,7
 516 82 516 82 542.5 109 c 128,-1,8
 569 136 569 136 569 174 c 2,9,-1
 569 676 l 1,10,-1
 653 676 l 1,11,-1
 653 170 l 2,12,13
 652 99 652 99 603 48 c 0,14,15
 552 -5 552 -5 480 -5 c 128,-1,16
 408 -5 408 -5 361 47 c 1,17,18
 314 -5 314 -5 242.5 -5 c 128,-1,19
 171 -5 171 -5 120 48 c 0,20,21
 70 98 70 98 69 170 c 2,22,-1
 69 676 l 1,23,-1
 153 676 l 1,24,-1
 153 174 l 2,25,26
 153 136 153 136 179.5 109 c 128,-1,27
 206 82 206 82 242.5 82 c 128,-1,28
 279 82 279 82 305 109 c 0,29,30
 315 119 315 119 319 126 c 1,0,-1
EndSplineSet
EndChar

StartChar: X
Encoding: 88 88 57
Width: 501
GlyphClass: 1
Flags: W
LayerCount: 2
Fore
SplineSet
52 0 m 1,0,-1
 201 369 l 1,1,-1
 52 676 l 1,2,-1
 149 676 l 1,3,-1
 250 468 l 1,4,-1
 350 676 l 1,5,-1
 447 676 l 1,6,-1
 298 369 l 1,7,-1
 447 0 l 1,8,-1
 350 0 l 1,9,-1
 250 260 l 1,10,-1
 149 0 l 1,11,-1
 52 0 l 1,0,-1
EndSplineSet
EndChar

StartChar: Y
Encoding: 89 89 58
Width: 489
GlyphClass: 1
Flags: W
LayerCount: 2
Fore
SplineSet
201 271 m 1,0,-1
 46 676 l 1,1,-1
 143 676 l 1,2,-1
 243 370 l 1,3,-1
 344 676 l 1,4,-1
 441 676 l 1,5,-1
 285 271 l 1,6,-1
 285 0 l 1,7,-1
 201 0 l 1,8,-1
 201 271 l 1,0,-1
EndSplineSet
EndChar

StartChar: Z
Encoding: 90 90 59
Width: 573
GlyphClass: 1
Flags: W
LayerCount: 2
Fore
SplineSet
377 589 m 1,0,-1
 68 589 l 1,1,-1
 68 676 l 1,2,-1
 522 676 l 1,3,-1
 194 88 l 1,4,-1
 504 88 l 1,5,-1
 504 0 l 1,6,-1
 49 0 l 1,7,-1
 377 589 l 1,0,-1
EndSplineSet
EndChar

StartChar: bracketleft
Encoding: 91 91 60
Width: 303
GlyphClass: 1
Flags: W
LayerCount: 2
Fore
SplineSet
76 696 m 1,0,-1
 250 696 l 1,1,-1
 250 636 l 1,2,-1
 154 636 l 1,3,-1
 154 -14 l 1,4,-1
 250 -14 l 1,5,-1
 250 -75 l 1,6,-1
 76 -75 l 1,7,-1
 76 696 l 1,0,-1
EndSplineSet
EndChar

StartChar: backslash
Encoding: 92 92 61
Width: 389
GlyphClass: 1
Flags: W
LayerCount: 2
Fore
SplineSet
121 696 m 1,0,-1
 340 -14 l 1,1,-1
 268 -14 l 1,2,-1
 49 696 l 1,3,-1
 121 696 l 1,0,-1
EndSplineSet
EndChar

StartChar: bracketright
Encoding: 93 93 62
Width: 301
GlyphClass: 1
Flags: W
LayerCount: 2
Fore
SplineSet
227 696 m 1,0,-1
 53 696 l 1,1,-1
 53 636 l 1,2,-1
 149 636 l 1,3,-1
 149 -14 l 1,4,-1
 53 -14 l 1,5,-1
 53 -75 l 1,6,-1
 227 -75 l 1,7,-1
 227 696 l 1,0,-1
EndSplineSet
EndChar

StartChar: asciicircum
Encoding: 94 94 63
Width: 442
GlyphClass: 1
Flags: W
LayerCount: 2
Fore
SplineSet
383 440 m 1,0,-1
 324 440 l 1,1,-1
 220 607 l 1,2,-1
 117 440 l 1,3,-1
 58 440 l 1,4,-1
 220 717 l 1,5,-1
 383 440 l 1,0,-1
EndSplineSet
EndChar

StartChar: underscore
Encoding: 95 95 64
Width: 554
GlyphClass: 1
Flags: W
LayerCount: 2
Fore
SplineSet
71 0 m 1,0,-1
 71 -89 l 1,1,-1
 481 -89 l 1,2,-1
 481 0 l 1,3,-1
 71 0 l 1,0,-1
EndSplineSet
EndChar

StartChar: grave
Encoding: 96 96 65
Width: 343
GlyphClass: 1
Flags: W
LayerCount: 2
Fore
SplineSet
144 819 m 1,0,-1
 276 666 l 1,1,-1
 184 666 l 2,2,3
 182 666 182 666 187 666 c 2,4,-1
 191 666 l 1,5,6
 191 666 191 666 184 666 c 1,7,-1
 61 819 l 1,8,-1
 144 819 l 1,0,-1
EndSplineSet
EndChar

StartChar: a
Encoding: 97 97 66
Width: 534
GlyphClass: 1
Flags: W
LayerCount: 2
Fore
SplineSet
311 272 m 1,0,-1
 265 404 l 1,1,-1
 219 272 l 1,2,-1
 311 272 l 1,0,-1
481 0 m 1,3,-1
 407 0 l 1,4,-1
 337 200 l 1,5,-1
 194 200 l 1,6,-1
 124 0 l 1,7,-1
 49 0 l 1,8,-1
 265 593 l 1,9,-1
 481 0 l 1,3,-1
EndSplineSet
EndChar

StartChar: b
Encoding: 98 98 67
Width: 436
GlyphClass: 1
Flags: W
LayerCount: 2
Fore
SplineSet
182 563 m 2,0,1
 229 563 229 563 262.5 528.5 c 128,-1,2
 296 494 296 494 296 444 c 128,-1,3
 296 394 296 394 247 383 c 1,4,5
 282 377 282 377 327 330.5 c 128,-1,6
 372 284 372 284 372 201 c 128,-1,7
 372 118 372 118 317 58 c 0,8,9
 264 1 264 1 212 0 c 2,10,-1
 72 0 l 1,11,-1
 72 563 l 1,12,-1
 182 563 l 2,0,1
142 327 m 1,13,-1
 142 73 l 1,14,-1
 212 73 l 2,15,16
 232 75 232 75 265 111 c 0,17,18
 301 149 301 149 301 201 c 128,-1,19
 301 253 301 253 265.5 290 c 128,-1,20
 230 327 230 327 180 327 c 2,21,-1
 142 327 l 1,13,-1
142 490 m 1,22,-1
 142 401 l 1,23,-1
 188 401 l 2,24,25
 203 402 203 402 215 413.5 c 128,-1,26
 227 425 227 425 227 445 c 128,-1,27
 227 465 227 465 214 477.5 c 128,-1,28
 201 490 201 490 182 490 c 2,29,-1
 142 490 l 1,22,-1
EndSplineSet
EndChar

StartChar: c
Encoding: 99 99 68
Width: 462
GlyphClass: 1
Flags: W
LayerCount: 2
Fore
SplineSet
335 569 m 0,0,1
 220 569 220 569 139 484.5 c 128,-1,2
 58 400 58 400 58 281 c 128,-1,3
 58 162 58 162 139 78 c 128,-1,4
 220 -6 220 -6 335 -6 c 0,5,6
 366 -6 366 -6 394 1 c 1,7,-1
 394 77 l 1,8,9
 365 67 365 67 335 67 c 0,10,11
 250 67 250 67 189.5 130 c 128,-1,12
 129 193 129 193 129 281.5 c 128,-1,13
 129 370 129 370 189.5 433 c 128,-1,14
 250 496 250 496 335 496 c 0,15,16
 366 496 366 496 394 485 c 1,17,-1
 394 562 l 1,18,19
 366 569 366 569 335 569 c 0,0,1
EndSplineSet
EndChar

StartChar: d
Encoding: 100 100 69
Width: 475
GlyphClass: 1
Flags: W
LayerCount: 2
Fore
SplineSet
142 486 m 1,0,-1
 142 72 l 1,1,2
 226 72 226 72 279 128 c 0,3,4
 339 190 339 190 339.5 279 c 128,-1,5
 340 368 340 368 279 431 c 0,6,7
 226 486 226 486 142 486 c 1,0,-1
123 561 m 2,8,9
 255 560 255 560 329 483 c 0,10,11
 410 398 410 398 410 279 c 128,-1,12
 410 160 410 160 329 76 c 0,13,14
 255 -1 255 -1 123 -2 c 2,15,-1
 72 -2 l 1,16,-1
 72 561 l 1,17,-1
 123 561 l 2,8,9
EndSplineSet
EndChar

StartChar: e
Encoding: 101 101 70
Width: 437
GlyphClass: 1
Flags: W
LayerCount: 2
Fore
SplineSet
364 563 m 1,0,-1
 364 490 l 1,1,-1
 142 490 l 1,2,-1
 142 378 l 1,3,-1
 364 378 l 1,4,-1
 364 305 l 1,5,-1
 142 305 l 1,6,-1
 142 73 l 1,7,-1
 364 73 l 1,8,-1
 364 0 l 1,9,-1
 72 0 l 1,10,-1
 72 563 l 1,11,-1
 364 563 l 1,0,-1
EndSplineSet
EndChar

StartChar: f
Encoding: 102 102 71
Width: 433
GlyphClass: 1
Flags: W
LayerCount: 2
Fore
SplineSet
364 563 m 1,0,-1
 364 490 l 1,1,-1
 142 490 l 1,2,-1
 142 378 l 1,3,-1
 364 378 l 1,4,-1
 364 305 l 1,5,-1
 142 305 l 1,6,-1
 142 0 l 1,7,-1
 72 0 l 1,8,-1
 72 563 l 1,9,-1
 364 563 l 1,0,-1
EndSplineSet
EndChar

StartChar: g
Encoding: 103 103 72
Width: 600
GlyphClass: 1
Flags: W
LayerCount: 2
Fore
SplineSet
527 77 m 1,0,1
 443 -6 443 -6 336 -6 c 0,2,3
 221 -6 221 -6 139.5 78 c 128,-1,4
 58 162 58 162 58 281 c 128,-1,5
 58 400 58 400 139.5 484.5 c 128,-1,6
 221 569 221 569 336 569 c 0,7,8
 444 569 444 569 539 478 c 1,9,-1
 486 429 l 1,10,11
 414 496 414 496 336 496 c 0,12,13
 251 496 251 496 190.5 433 c 128,-1,14
 130 370 130 370 130 281.5 c 128,-1,15
 130 193 130 193 190.5 130 c 128,-1,16
 251 67 251 67 336 67 c 0,17,18
 409 67 409 67 456 108 c 1,19,-1
 456 278 l 1,20,-1
 527 278 l 1,21,-1
 527 77 l 1,0,1
EndSplineSet
EndChar

StartChar: h
Encoding: 104 104 73
Width: 455
GlyphClass: 1
Flags: W
LayerCount: 2
Fore
SplineSet
142 293 m 1,0,-1
 142 0 l 1,1,-1
 72 0 l 1,2,-1
 72 563 l 1,3,-1
 142 563 l 1,4,-1
 142 366 l 1,5,-1
 310 366 l 1,6,-1
 310 563 l 1,7,-1
 379 563 l 1,8,-1
 379 0 l 1,9,-1
 310 0 l 1,10,-1
 310 293 l 1,11,-1
 142 293 l 1,0,-1
EndSplineSet
EndChar

StartChar: i
Encoding: 105 105 74
Width: 218
GlyphClass: 1
Flags: W
LayerCount: 2
Fore
SplineSet
142 563 m 1,0,-1
 142 0 l 1,1,-1
 72 0 l 1,2,-1
 72 563 l 1,3,-1
 142 563 l 1,0,-1
EndSplineSet
EndChar

StartChar: j
Encoding: 106 106 75
Width: 347
GlyphClass: 1
Flags: W
LayerCount: 2
Fore
SplineSet
274 121 m 2,0,1
 274 63 274 63 243 30 c 0,2,3
 210 -4 210 -4 163.5 -4 c 128,-1,4
 117 -4 117 -4 84 30.5 c 128,-1,5
 51 65 51 65 51 121 c 1,6,-1
 107 143 l 1,7,8
 116 90 116 90 131 78 c 0,9,10
 141 69 141 69 160 69 c 2,11,-1
 161 69 l 2,12,13
 180 69 180 69 194 81 c 0,14,15
 204 92 204 92 204 124 c 2,16,-1
 204 563 l 1,17,-1
 274 563 l 1,18,-1
 274 121 l 2,0,1
EndSplineSet
EndChar

StartChar: k
Encoding: 107 107 76
Width: 450
GlyphClass: 1
Flags: W
LayerCount: 2
Fore
SplineSet
142 296 m 1,0,-1
 142 0 l 1,1,-1
 72 0 l 1,2,-1
 72 563 l 1,3,-1
 142 563 l 1,4,-1
 142 416 l 1,5,-1
 271 563 l 1,6,-1
 359 563 l 1,7,-1
 193 361 l 1,8,-1
 400 0 l 1,9,-1
 315 0 l 1,10,-1
 147 302 l 1,11,-1
 142 296 l 1,0,-1
EndSplineSet
EndChar

StartChar: l
Encoding: 108 108 77
Width: 397
GlyphClass: 1
Flags: W
LayerCount: 2
Fore
SplineSet
72 0 m 1,0,-1
 72 563 l 1,1,-1
 142 563 l 1,2,-1
 142 73 l 1,3,-1
 336 73 l 1,4,-1
 336 0 l 1,5,-1
 72 0 l 1,0,-1
EndSplineSet
EndChar

StartChar: m
Encoding: 109 109 78
Width: 606
GlyphClass: 1
Flags: W
LayerCount: 2
Fore
SplineSet
301 158 m 1,0,-1
 506 597 l 1,1,-1
 540 0 l 1,2,-1
 470 0 l 1,3,-1
 441 316 l 1,4,-1
 301 -17 l 1,5,-1
 160 316 l 1,6,-1
 132 0 l 1,7,-1
 61 0 l 1,8,-1
 99 597 l 1,9,-1
 301 158 l 1,0,-1
EndSplineSet
EndChar

StartChar: n
Encoding: 110 110 79
Width: 454
GlyphClass: 1
Flags: W
LayerCount: 2
Fore
SplineSet
72 587 m 1,0,-1
 308 215 l 1,1,-1
 308 563 l 1,2,-1
 378 563 l 1,3,-1
 378 -28 l 1,4,-1
 141 347 l 1,5,-1
 141 0 l 1,6,-1
 72 0 l 1,7,-1
 72 587 l 1,0,-1
EndSplineSet
EndChar

StartChar: o
Encoding: 111 111 80
Width: 678
GlyphClass: 1
Flags: W
LayerCount: 2
Fore
SplineSet
336 568 m 256,0,1
 451 568 451 568 532 483.5 c 128,-1,2
 613 399 613 399 613 280 c 128,-1,3
 613 161 613 161 531.5 76.5 c 128,-1,4
 450 -8 450 -8 335.5 -8 c 128,-1,5
 221 -8 221 -8 139.5 76.5 c 128,-1,6
 58 161 58 161 58 280 c 128,-1,7
 58 399 58 399 139.5 483.5 c 128,-1,8
 221 568 221 568 336 568 c 256,0,1
336 495 m 256,9,10
 250 495 250 495 189.5 432 c 128,-1,11
 129 369 129 369 129 279.5 c 128,-1,12
 129 190 129 190 190 127.5 c 128,-1,13
 251 65 251 65 336.5 65 c 128,-1,14
 422 65 422 65 482.5 127.5 c 128,-1,15
 543 190 543 190 543 279.5 c 128,-1,16
 543 369 543 369 482.5 432 c 128,-1,17
 422 495 422 495 336 495 c 256,9,10
EndSplineSet
EndChar

StartChar: p
Encoding: 112 112 81
Width: 423
GlyphClass: 1
Flags: W
LayerCount: 2
Fore
SplineSet
141 290 m 1,0,-1
 142 0 l 1,1,-1
 72 0 l 1,2,-1
 72 563 l 1,3,4
 168 563 168 563 208 561 c 0,5,6
 266 558 266 558 298 546 c 0,7,8
 332 534 332 534 346.5 507 c 128,-1,9
 361 480 361 480 361 432 c 0,10,11
 362 371 362 371 332 338 c 0,12,13
 306 309 306 309 255 298 c 0,14,15
 215 290 215 290 141 290 c 1,0,-1
142 489 m 1,16,-1
 141 362 l 1,17,-1
 143 362 l 2,18,19
 201 362 201 362 223 366 c 0,20,21
 258 370 258 370 273 384 c 0,22,23
 290 399 290 399 291 432 c 0,24,25
 291 461 291 461 278.5 473.5 c 128,-1,26
 266 486 266 486 239 489 c 0,27,28
 222 491 222 491 177 490 c 2,29,-1
 142 489 l 1,16,-1
EndSplineSet
EndChar

StartChar: q
Encoding: 113 113 82
Width: 678
GlyphClass: 1
Flags: W
LayerCount: 2
Fore
SplineSet
336 497 m 256,0,1
 250 497 250 497 189.5 434 c 128,-1,2
 129 371 129 371 129 282 c 128,-1,3
 129 193 129 193 190 130 c 128,-1,4
 251 67 251 67 336.5 67 c 128,-1,5
 422 67 422 67 482.5 130 c 128,-1,6
 543 193 543 193 543 282 c 128,-1,7
 543 371 543 371 482.5 434 c 128,-1,8
 422 497 422 497 336 497 c 256,0,1
451 18 m 1,9,10
 459 13 459 13 468 7 c 0,11,12
 492 -5 492 -5 500 -8 c 0,13,14
 504 -9 504 -9 507 -9 c 0,15,16
 513 -9 513 -9 519 -6 c 0,17,18
 527 -1 527 -1 530 9 c 0,19,20
 531 12 531 12 532 36 c 1,21,-1
 603 36 l 1,22,23
 601 1 601 1 598 -10 c 0,24,25
 588 -49 588 -49 553 -69 c 0,26,27
 531 -82 531 -82 508 -82 c 0,28,29
 495 -82 495 -82 481 -78 c 0,30,31
 459 -72 459 -72 423 -48 c 0,32,33
 394 -32 394 -32 383 -29 c 0,34,35
 377 -27 377 -27 371 -27 c 0,36,37
 361 -27 361 -27 351 -33 c 0,38,39
 336 -42 336 -42 331 -59 c 0,40,41
 330 -61 330 -61 329 -83 c 1,42,-1
 258 -83 l 1,43,44
 260 -49 260 -49 263 -39 c 0,45,46
 268 -17 268 -17 280 -1 c 1,47,48
 200 14 200 14 139 78 c 0,49,50
 58 162 58 162 58 281.5 c 128,-1,51
 58 401 58 401 139.5 485.5 c 128,-1,52
 221 570 221 570 335.5 570 c 128,-1,53
 450 570 450 570 531.5 485.5 c 128,-1,54
 613 401 613 401 613 281.5 c 128,-1,55
 613 162 613 162 532 78 c 0,56,57
 495 40 495 40 451 18 c 1,9,10
EndSplineSet
EndChar

StartChar: r
Encoding: 114 114 83
Width: 452
GlyphClass: 1
Flags: W
LayerCount: 2
Fore
SplineSet
111 563 m 0,0,1
 96 563 96 563 72 563 c 1,2,-1
 72 0 l 1,3,-1
 142 0 l 1,4,-1
 141 290 l 1,5,-1
 204 290 l 1,6,-1
 315 0 l 1,7,-1
 400 0 l 1,8,-1
 278 302 l 1,9,-1
 280 305 l 1,10,11
 320 318 320 318 340 347 c 0,12,13
 363 379 363 379 361 432 c 0,14,15
 361 491 361 491 338 519 c 128,-1,16
 315 547 315 547 259 556 c 0,17,18
 214 563 214 563 111 563 c 0,0,1
204 490 m 2,19,20
 251 490 251 490 269 481 c 0,21,22
 292 469 292 469 291 431.5 c 128,-1,23
 290 394 290 394 268 379 c 0,24,25
 249 366 249 366 202 362 c 0,26,27
 191 362 191 362 164 362 c 2,28,-1
 141 362 l 1,29,-1
 142 489 l 1,30,-1
 204 490 l 2,19,20
EndSplineSet
EndChar

StartChar: s
Encoding: 115 115 84
Width: 450
GlyphClass: 1
Flags: W
LayerCount: 2
Fore
SplineSet
221 289 m 0,0,1
 164 309 164 309 128 346 c 128,-1,2
 92 383 92 383 92 437.5 c 128,-1,3
 92 492 92 492 129 530.5 c 128,-1,4
 166 569 166 569 218.5 569 c 128,-1,5
 271 569 271 569 308 531 c 0,6,7
 330 509 330 509 344 464 c 1,8,-1
 280 437 l 1,9,10
 269 470 269 470 259 480 c 0,11,12
 243 496 243 496 219.5 496.5 c 128,-1,13
 196 497 196 497 179 480 c 128,-1,14
 162 463 162 463 162 438.5 c 128,-1,15
 162 414 162 414 178 396 c 0,16,17
 197 377 197 377 230 361 c 0,18,19
 293 339 293 339 338 294 c 0,20,21
 388 243 388 243 388 170 c 128,-1,22
 388 97 388 97 338.5 45.5 c 128,-1,23
 289 -6 289 -6 218.5 -6 c 128,-1,24
 148 -6 148 -6 99 46 c 0,25,26
 59 87 59 87 49 160 c 1,27,-1
 118 185 l 1,28,29
 124 123 124 123 148 96 c 0,30,31
 178 66 178 66 219 66.5 c 128,-1,32
 260 67 260 67 289 97 c 128,-1,33
 318 127 318 127 318 169.5 c 128,-1,34
 318 212 318 212 289.5 242 c 128,-1,35
 261 272 261 272 221 289 c 0,0,1
EndSplineSet
EndChar

StartChar: t
Encoding: 116 116 85
Width: 439
GlyphClass: 1
Flags: W
LayerCount: 2
Fore
SplineSet
251 490 m 1,0,-1
 251 0 l 1,1,-1
 181 0 l 1,2,-1
 181 490 l 1,3,-1
 54 490 l 1,4,-1
 54 563 l 1,5,-1
 378 563 l 1,6,-1
 378 490 l 1,7,-1
 251 490 l 1,0,-1
EndSplineSet
EndChar

StartChar: u
Encoding: 117 117 86
Width: 448
GlyphClass: 1
Flags: W
LayerCount: 2
Fore
SplineSet
305 563 m 1,0,-1
 375 563 l 1,1,-1
 375 167 l 2,2,3
 375 121 375 121 357.5 81.5 c 128,-1,4
 340 42 340 42 305 19 c 0,5,6
 269 -5 269 -5 221.5 -4.5 c 128,-1,7
 174 -4 174 -4 137 24 c 0,8,9
 104 50 104 50 85.5 93 c 128,-1,10
 67 136 67 136 66 187 c 2,11,-1
 66 563 l 1,12,-1
 137 563 l 1,13,-1
 137 187 l 2,14,15
 137 69 137 69 221 69 c 0,16,17
 265 69 265 69 285 104 c 0,18,19
 303 134 303 134 305 187 c 2,20,-1
 305 563 l 1,0,-1
EndSplineSet
EndChar

StartChar: v
Encoding: 118 118 87
Width: 425
GlyphClass: 1
Flags: W
LayerCount: 2
Fore
SplineSet
52 563 m 1,0,-1
 127 563 l 1,1,-1
 211 189 l 1,2,-1
 295 563 l 1,3,-1
 370 563 l 1,4,-1
 211 -30 l 1,5,-1
 52 563 l 1,0,-1
EndSplineSet
EndChar

StartChar: w
Encoding: 119 119 88
Width: 627
GlyphClass: 1
Flags: W
LayerCount: 2
Fore
SplineSet
275 105 m 2,0,-1
 275 563 l 1,1,-1
 345 563 l 1,2,-1
 345 105 l 2,3,4
 348 99 348 99 356 90 c 0,5,6
 379 68 379 68 409 68.5 c 128,-1,7
 439 69 439 69 461 91.5 c 128,-1,8
 483 114 483 114 483 144 c 2,9,-1
 483 563 l 1,10,-1
 554 563 l 1,11,-1
 554 142 l 2,12,13
 552 82 552 82 510.5 39 c 128,-1,14
 469 -4 469 -4 409 -4 c 128,-1,15
 349 -4 349 -4 310 39 c 1,16,17
 271 -4 271 -4 211 -4 c 128,-1,18
 151 -4 151 -4 109 39 c 128,-1,19
 67 82 67 82 66 142 c 2,20,-1
 66 563 l 1,21,-1
 137 563 l 1,22,-1
 137 144 l 2,23,24
 137 113 137 113 159 91 c 128,-1,25
 181 69 181 69 211 69 c 128,-1,26
 241 69 241 69 263 90 c 0,27,28
 272 99 272 99 275 105 c 2,0,-1
EndSplineSet
EndChar

StartChar: x
Encoding: 120 120 89
Width: 440
GlyphClass: 1
Flags: W
LayerCount: 2
Fore
SplineSet
54 0 m 1,0,-1
 177 307 l 1,1,-1
 54 563 l 1,2,-1
 134 563 l 1,3,-1
 218 390 l 1,4,-1
 302 563 l 1,5,-1
 382 563 l 1,6,-1
 258 307 l 1,7,-1
 382 0 l 1,8,-1
 302 0 l 1,9,-1
 218 217 l 1,10,-1
 134 0 l 1,11,-1
 54 0 l 1,0,-1
EndSplineSet
EndChar

StartChar: y
Encoding: 121 121 90
Width: 434
GlyphClass: 1
Flags: W
LayerCount: 2
Fore
SplineSet
179 226 m 1,0,-1
 50 563 l 1,1,-1
 131 563 l 1,2,-1
 214 308 l 1,3,-1
 299 563 l 1,4,-1
 380 563 l 1,5,-1
 249 226 l 1,6,-1
 249 0 l 1,7,-1
 179 0 l 1,8,-1
 179 226 l 1,0,-1
EndSplineSet
EndChar

StartChar: z
Encoding: 122 122 91
Width: 502
GlyphClass: 1
Flags: W
LayerCount: 2
Fore
SplineSet
325 490 m 1,0,-1
 68 490 l 1,1,-1
 68 563 l 1,2,-1
 446 563 l 1,3,-1
 174 74 l 1,4,-1
 431 74 l 1,5,-1
 431 0 l 1,6,-1
 53 0 l 1,7,-1
 325 490 l 1,0,-1
EndSplineSet
EndChar

StartChar: sterling
Encoding: 163 163 92
Width: 530
GlyphClass: 1
Flags: W
LayerCount: 2
Fore
SplineSet
252 234 m 1,0,1
 252 138 252 138 200 86 c 1,2,3
 235 108 235 108 276 108 c 0,4,5
 287 108 287 108 298 106 c 0,6,7
 352 98 352 98 383 98 c 0,8,9
 412 98 412 98 463 112 c 1,10,-1
 479 26 l 1,11,12
 421 12 421 12 383.5 11.5 c 128,-1,13
 346 11 346 11 307 19 c 0,14,15
 271 27 271 27 246 28 c 0,16,17
 223 28 223 28 209 23 c 0,18,19
 170 9 170 9 115 -19 c 1,20,-1
 51 56 l 1,21,22
 117 114 117 114 128 128 c 0,23,24
 164 171 164 171 165 236 c 1,25,-1
 73 236 l 1,26,-1
 73 323 l 1,27,-1
 145 323 l 1,28,-1
 128 357 l 1,29,30
 82 431 82 431 76 501 c 0,31,32
 75 509 75 509 75 518 c 0,33,34
 75 581 75 581 117 632 c 0,35,36
 164 687 164 687 239 694 c 2,37,-1
 255 695 l 2,38,39
 318 695 318 695 369 653 c 0,40,41
 425 605 425 605 432 531 c 0,42,43
 434 521 434 521 434 512 c 0,44,45
 434 482 434 482 414 435 c 1,46,-1
 332 463 l 1,47,48
 345 500 345 500 345 516 c 2,49,-1
 345 524 l 1,50,51
 341 561 341 561 312 586 c 0,52,53
 286 606 286 606 256 606 c 2,54,-1
 247 606 l 2,55,56
 210 603 210 603 185 574 c 0,57,58
 163 548 163 548 164 518 c 2,59,-1
 165 508 l 2,60,61
 168 469 168 469 192 419 c 1,62,63
 227 364 227 364 237 323 c 1,64,-1
 319 323 l 1,65,-1
 319 236 l 1,66,-1
 252 234 l 1,0,1
EndSplineSet
EndChar

StartChar: Omacron
Encoding: 332 332 93
Width: 694
GlyphClass: 1
Flags: W
LayerCount: 2
Fore
SplineSet
344 685 m 256,0,1
 275 685 275 685 216.5 649 c 128,-1,2
 158 613 158 613 124 553 c 128,-1,3
 90 493 90 493 90 421 c 128,-1,4
 90 349 90 349 124 288.5 c 128,-1,5
 158 228 158 228 216.5 193 c 128,-1,6
 275 158 275 158 343.5 158 c 128,-1,7
 412 158 412 158 470.5 193 c 128,-1,8
 529 228 529 228 563.5 288.5 c 128,-1,9
 598 349 598 349 598 421 c 128,-1,10
 598 493 598 493 563.5 553 c 128,-1,11
 529 613 529 613 471 649 c 128,-1,12
 413 685 413 685 344 685 c 256,0,1
344 596 m 256,13,14
 390 596 390 596 429 572.5 c 128,-1,15
 468 549 468 549 490.5 509 c 128,-1,16
 513 469 513 469 513 421 c 128,-1,17
 513 373 513 373 490.5 333 c 128,-1,18
 468 293 468 293 429 269.5 c 128,-1,19
 390 246 390 246 344 246 c 128,-1,20
 298 246 298 246 259 269.5 c 128,-1,21
 220 293 220 293 197.5 333 c 128,-1,22
 175 373 175 373 175 421 c 128,-1,23
 175 469 175 469 197.5 509 c 128,-1,24
 220 549 220 549 259 572.5 c 128,-1,25
 298 596 298 596 344 596 c 256,13,14
55 89 m 1,26,-1
 55 0 l 1,27,-1
 633 0 l 1,28,-1
 633 89 l 1,29,-1
 55 89 l 1,26,-1
EndSplineSet
EndChar

StartChar: euro
Encoding: 8364 8364 94
Width: 637
GlyphClass: 1
Flags: W
LayerCount: 2
Fore
SplineSet
108 454 m 1,0,-1
 108 462 l 1,1,2
 113 531 113 531 146 581 c 0,3,4
 178 629 178 629 230.5 654.5 c 128,-1,5
 283 680 283 680 348 681 c 0,6,7
 447 681 447 681 536 592 c 1,8,-1
 473 528 l 1,9,10
 411 590 411 590 348 591 c 0,11,12
 281 588 281 588 239.5 553 c 128,-1,13
 198 518 198 518 197 462 c 2,14,-1
 197 454 l 1,15,-1
 430 454 l 1,16,-1
 430 375 l 1,17,-1
 197 375 l 1,18,-1
 197 351 l 1,19,-1
 430 351 l 1,20,-1
 430 272 l 1,21,-1
 197 273 l 1,22,-1
 197 233 l 2,23,24
 197 171 197 171 241 127.5 c 128,-1,25
 285 84 285 84 347.5 84 c 128,-1,26
 410 84 410 84 454 128 c 0,27,28
 482 156 482 156 497 208 c 1,29,-1
 589 208 l 1,30,31
 566 114 566 114 518 65 c 0,32,33
 447 -5 447 -5 348 -5 c 128,-1,34
 249 -5 249 -5 178 65 c 1,35,36
 146 104 146 104 127.5 149 c 128,-1,37
 109 194 109 194 108 232 c 2,38,-1
 108 272 l 1,39,-1
 61 272 l 1,40,-1
 61 351 l 1,41,-1
 108 351 l 1,42,-1
 108 375 l 1,43,-1
 61 375 l 1,44,-1
 61 454 l 1,45,-1
 108 454 l 1,0,-1
EndSplineSet
EndChar
